# xmcd
#
# Track frame offsets:
#	150
#	14687
#	26680
#	41965
#	64327
#	81157
#	91770
#	109340
#	122835
#	133675
#	149495
#	163300
#	176935
#	195802
#	212032
#	227610
#	238235
#	252160
#
# Disc length: 3518 seconds
#
# Revision: 2
# Processed by: cddbd v1.5.1PL0 Copyright (c) Steve Scherf et al.
# Submitted via: EasyCDDAExtractor 8.2.1.1
#
DISCID=0c0dbc12
DTITLE=Various Artist - Roots Music - An American Journey - Disc 2
DYEAR=2001
DGENRE=Bluegrass
TTITLE0=Balfa Brothers - Lacassine Special
TTITLE1=D.L. Menard - Ti galop pour Mamou
TTITLE2=Chris Ardoin& Double Clutchin' - Dimanche apres-midi
TTITLE3=John and Geno Delafose - Pere et garcon zydeco
TTITLE4=Boozoo Chavis - Oh bye mon neg
TTITLE5=Santiago Jimenez, Jr. - Zulema Waltz
TTITLE6=Los Pregoneros del Puerto - El ahualulco
TTITLE7=Los Cachorros - Ven (Come to Me)
TTITLE8=Liz Carroll and James Keane, Jr. - Reels:  Catherine McEvoy's-Arklow Mou
TTITLE8=ntains
TTITLE9=Joe Cormier - Silver Star Hornpipe-Karen's Reel-Temperence Reel
TTITLE10=J.D. Crowe and The New South - Long Journey Home
TTITLE11=James King - Leavin'
TTITLE12=Vern Williams - Old Folks at Home
TTITLE13=The Freight Hoppers - Nobody's Business
TTITLE14=James Booker - All Around the World
TTITLE15=Tuts Washington - Frankie and Johnny
TTITLE16=Preacher Jack - Yancey's Bugle Call
TTITLE17=Sleepy Labeef - Bottle Up and Go
EXTD=YEAR: 2001 ID3G: 89
EXTT0=
EXTT1=
EXTT2=
EXTT3=
EXTT4=
EXTT5=
EXTT6=
EXTT7=
EXTT8=
EXTT9=
EXTT10=
EXTT11=
EXTT12=
EXTT13=
EXTT14=
EXTT15=
EXTT16=
EXTT17=
PLAYORDER=
